<svg width="466" height="287" viewBox="0 0 466 287" fill="none" xmlns="http://www.w3.org/2000/svg">
<g clip-path="url(#clip0)">
<path d="M305.23 183.158L312.841 176.018L298.861 142.802C297.14 138.832 295.737 134.731 294.667 130.539C293.697 134.741 292.346 138.845 290.629 142.802L273.697 183.158H260.96L294.823 104.307L328.685 183.158H305.23Z" fill="white"/>
<path d="M93.5107 107.256H135.917V117.811H105.782V136.748H135.761V147.613H105.782V172.138H135.761V183.158H93.5107V107.256Z" fill="white"/>
<path d="M170.711 104.307L219.02 150.718C221.969 153.635 224.719 156.746 227.253 160.031V107.256H238.592V186.108L189.351 138.921C186.673 136.294 184.23 133.437 182.051 130.384V183.158H170.711V104.307Z" fill="white"/>
<path d="M352.451 107.256H394.857V117.811H364.723V136.593H394.857V147.458H364.723V183.158H352.451V107.256Z" fill="white"/>
<path d="M423.905 107.256H436.176V183.158H423.905V107.256Z" fill="white"/>
<path d="M44.4253 107.256L52.0367 114.396L38.0567 147.613C36.3352 151.583 34.9328 155.683 33.8627 159.876C32.8927 155.674 31.5409 151.569 29.824 147.613L12.8927 107.256H0L33.8627 186.108L67.7253 107.256H44.4253Z" fill="white"/>
<path d="M52.8133 81.6452C74.8707 36.0108 122.092 3.72527 175.527 1.19277e-05H173.352C124.577 -0.155207 69.2787 38.1839 49.2407 81.0243C47.2213 85.3705 34.484 90.027 27.6493 93.5971L26.4067 94.218H33.7073L34.6393 93.7523C41.474 90.027 50.794 85.8361 52.8133 81.6452Z" fill="white"/>
<path d="M71.1427 94.218C81.1874 70.9302 97.8383 51.0923 119.039 37.1543C140.239 23.2164 165.061 15.7887 190.439 15.7887C215.816 15.7887 240.638 23.2164 261.838 37.1543C283.039 51.0923 299.69 70.9302 309.735 94.218H310.045C291.871 40.0465 249.155 0.155212 186.555 0.155212C159.293 0.165351 132.583 7.84227 109.481 22.308C86.3794 36.7737 67.8181 57.4443 55.92 81.9557C53.7453 86.3018 44.27 90.4927 37.4353 94.218H71.1427Z" fill="white"/>
<path d="M302.589 192.937L301.813 194.645C283.949 235.778 245.116 266.201 198.827 268.839V269.305C242.009 266.977 285.813 239.193 305.075 194.645L305.851 192.937H302.589Z" fill="white"/>
<path d="M308.026 192.937C297.981 216.225 281.33 236.063 260.13 250.001C238.929 263.939 214.107 271.366 188.73 271.366C163.353 271.366 138.531 263.939 117.33 250.001C96.1296 236.063 79.4788 216.225 69.434 192.937H69.1233C89.472 248.506 130.014 287 192.613 287C219.883 287.023 246.606 279.359 269.714 264.89C292.822 250.42 311.377 229.732 323.249 205.2C325.423 200.853 334.899 196.663 341.733 192.937H308.026Z" fill="white"/>
</g>
<defs>
<clipPath id="clip0">
<rect width="466" height="287" fill="white"/>
</clipPath>
</defs>
</svg>
