<svg width="465" height="287" viewBox="0 0 465 287" fill="none" xmlns="http://www.w3.org/2000/svg">
<g clip-path="url(#clip0)">
<rect width="465" height="287" fill="white"/>
<path d="M304.59 183.129L312.216 175.959L298.266 142.701C296.56 138.755 295.181 134.675 294.144 130.503C293.199 134.69 291.849 138.775 290.113 142.701L273.156 183.129H260.4L294.221 104.29L327.949 183.129H304.59Z" fill="white"/>
<path d="M93.2635 107.223H135.563V117.73H105.571V136.726H135.563V147.589H105.571V172.11H135.563V183.129H93.2635V107.223Z" fill="white"/>
<path d="M170.329 104.244L218.457 150.631C221.414 153.553 224.179 156.663 226.734 159.943V107.177H238.064V186.077L188.991 138.852C186.3 136.251 183.851 133.41 181.675 130.363V183.129H170.329V104.244Z" fill="white"/>
<path d="M351.741 107.223H394.026V117.73H364.002V136.571H394.026V147.434H364.002V183.129H351.741V107.223Z" fill="white"/>
<path d="M422.948 107.223H435.255V183.129H422.948V107.223Z" fill="white"/>
<path d="M44.268 107.223L51.894 114.409L37.944 147.667C36.2401 151.608 34.8612 155.683 33.821 159.85C32.8764 155.662 31.5267 151.577 29.791 147.651L12.834 107.301H0L33.821 186.077L67.6265 107.223H44.268Z" fill="white"/>
<path d="M52.7 81.6009C74.7875 36.0826 121.861 3.72465 175.15 -5.07803e-07H172.902C124.372 -0.186233 69.1765 38.2087 49.073 81.0577C46.996 85.3566 34.3015 90.0124 27.497 93.6905L26.319 94.2337H33.635L34.596 93.6905C41.447 90.0124 50.6385 85.8532 52.7 81.6009Z" fill="white"/>
<path d="M70.9745 94.2182C80.9969 70.9377 97.61 51.1062 118.762 37.1727C139.915 23.2392 164.68 15.814 189.999 15.814C215.318 15.814 240.083 23.2392 261.236 37.1727C282.388 51.1062 299.001 70.9377 309.023 94.2182H309.38C291.276 40.1021 248.667 0.201753 186.202 0.201753C158.992 0.186126 132.328 7.84549 109.265 22.3023C86.2015 36.7591 67.6723 57.4285 55.8 81.9424C53.692 86.2723 44.206 90.5246 37.3085 94.2337H70.9745V94.2182Z" fill="white"/>
<path d="M301.878 192.953L301.134 194.613C283.34 235.739 244.543 266.189 198.384 268.827V269.323C241.521 266.98 285.184 239.138 304.482 194.613L305.226 192.953H301.878Z" fill="white"/>
<path d="M307.396 192.968C297.379 216.254 280.768 236.092 259.615 250.03C238.462 263.968 213.694 271.396 188.372 271.396C163.049 271.396 138.281 263.968 117.128 250.03C95.9753 236.092 79.3642 216.254 69.347 192.968H69.006C89.342 248.45 129.72 287 192.169 287C219.371 287.007 246.025 279.343 269.079 264.887C292.133 250.431 310.655 229.766 322.524 205.259C324.632 200.929 334.118 196.677 341.016 192.968H307.396Z" fill="white"/>
<path d="M304.59 183.129L312.216 175.959L298.266 142.701C296.56 138.755 295.181 134.675 294.144 130.503C293.199 134.69 291.849 138.775 290.113 142.701L273.156 183.129H260.4L294.221 104.29L327.949 183.129H304.59Z" fill="black"/>
<path d="M93.2635 107.223H135.563V117.73H105.571V136.726H135.563V147.589H105.571V172.11H135.563V183.129H93.2635V107.223Z" fill="black"/>
<path d="M170.329 104.244L218.457 150.631C221.414 153.553 224.179 156.663 226.734 159.943V107.177H238.064V186.077L188.991 138.852C186.3 136.251 183.851 133.41 181.675 130.363V183.129H170.329V104.244Z" fill="black"/>
<path d="M351.741 107.223H394.026V117.73H364.002V136.571H394.026V147.434H364.002V183.129H351.741V107.223Z" fill="black"/>
<path d="M422.948 107.223H435.255V183.129H422.948V107.223Z" fill="black"/>
<path d="M44.268 107.223L51.894 114.409L37.944 147.667C36.2401 151.608 34.8612 155.683 33.821 159.85C32.8764 155.662 31.5267 151.577 29.791 147.651L12.834 107.301H0L33.821 186.077L67.6265 107.223H44.268Z" fill="black"/>
<path d="M52.7 81.6009C74.7875 36.0826 121.861 3.72465 175.15 -5.07803e-07H172.902C124.372 -0.186233 69.1765 38.2087 49.073 81.0577C46.996 85.3566 34.3015 90.0124 27.497 93.6905L26.319 94.2337H33.635L34.596 93.6905C41.447 90.0124 50.6385 85.8532 52.7 81.6009Z" fill="black"/>
<path d="M70.9745 94.2182C80.9969 70.9377 97.61 51.1062 118.762 37.1727C139.915 23.2392 164.68 15.814 189.999 15.814C215.318 15.814 240.083 23.2392 261.236 37.1727C282.388 51.1062 299.001 70.9377 309.023 94.2182H309.38C291.276 40.1021 248.667 0.201753 186.202 0.201753C158.992 0.186126 132.328 7.84549 109.265 22.3023C86.2015 36.7591 67.6723 57.4285 55.8 81.9424C53.692 86.2723 44.206 90.5246 37.3085 94.2337H70.9745V94.2182Z" fill="black"/>
<path d="M301.878 192.953L301.134 194.613C283.34 235.739 244.543 266.189 198.384 268.827V269.323C241.521 266.98 285.184 239.138 304.482 194.613L305.226 192.953H301.878Z" fill="black"/>
<path d="M307.396 192.968C297.379 216.254 280.768 236.092 259.615 250.03C238.462 263.968 213.694 271.396 188.372 271.396C163.049 271.396 138.281 263.968 117.128 250.03C95.9753 236.092 79.3642 216.254 69.347 192.968H69.006C89.342 248.45 129.72 287 192.169 287C219.371 287.007 246.025 279.343 269.079 264.887C292.133 250.431 310.655 229.766 322.524 205.259C324.632 200.929 334.118 196.677 341.016 192.968H307.396Z" fill="black"/>
</g>
<defs>
<clipPath id="clip0">
<rect width="465" height="287" fill="white"/>
</clipPath>
</defs>
</svg>
